# xmcd
#
# Track frame offsets: 
#        150
#        12726
#        28853
#        40793
#        56789
#        80627
#        93361
#        104496
#        118770
#        132558
#        156258
#        173384
#        196931
#
# Disc length: 4417 seconds
#
# Revision: 2
# Processed by: cddbd v1.5.2PL0 Copyright (c) Steve Scherf et al.
# Submitted via: ExactAudioCopy v0.99pb4
#
DISCID=b1113f0d
DTITLE=Asleep At The Wheel - Reinventing The Wheel
DYEAR=2006
DGENRE=Western Swing
TTITLE0=The Devil Ain't Lazy
TTITLE1=Your Mind Is On Vacation
TTITLE2=I Don't Care If the Sun Don't Shine
TTITLE3=Am I Right (Or Amarillo)
TTITLE4=This Ol' Cowboy
TTITLE5=I'm An Old Cowhand (From The Rio Grande)
TTITLE6=Pop A Wheelie
TTITLE7=Misery
TTITLE8=Hot Like That
TTITLE9=Saturday Night Fish Fry
TTITLE10=You're My Sugar
TTITLE11=The Cape
TTITLE12=Data
EXTD=YEAR: 2006
EXTT0=
EXTT1=
EXTT2=
EXTT3=
EXTT4=
EXTT5=
EXTT6=
EXTT7=
EXTT8=
EXTT9=
EXTT10=
EXTT11=
EXTT12=
PLAYORDER=
